<svg width="17" height="20" viewBox="0 0 17 20" fill="none" xmlns="http://www.w3.org/2000/svg">
<path d="M9.75247 0C10.0099 0 10.2079 0.21 10.2079 0.46V3.68C10.2079 5.51 11.703 7.01 13.5149 7.02C14.2673 7.02 14.8614 7.03 15.3168 7.03C15.6238 7.03 16.1287 7.02 16.5545 7.02C16.802 7.02 17 7.22 17 7.47V15.51C17 17.99 15.0099 20 12.5446 20H4.67327C2.09901 20 0 17.89 0 15.29V4.51C0 2.03 2 0 4.46535 0H9.75247ZM10.7624 10.24H5.87129C5.46535 10.24 5.12871 10.57 5.12871 10.99C5.12871 11.4 5.46535 11.73 5.87129 11.73H10.7624C11.1683 11.73 11.505 11.4 11.505 10.99C11.505 10.57 11.1683 10.24 10.7624 10.24ZM11.6496 0.9062C11.6496 0.4752 12.1674 0.2612 12.4635 0.5722C13.5338 1.6962 15.4041 3.6612 16.4496 4.7592C16.7387 5.0622 16.5268 5.5652 16.11 5.5662C15.2961 5.5692 14.3367 5.5662 13.6466 5.5592C12.5516 5.5592 11.6496 4.6482 11.6496 3.5422V0.9062Z" fill="#5EDE99"/>
</svg>
