<svg width="17" height="20" viewBox="0 0 17 20" fill="none" xmlns="http://www.w3.org/2000/svg">
<path fill-rule="evenodd" clip-rule="evenodd" d="M14.0227 5.39601V6.92935C15.7451 7.46696 17 9.02614 17 10.8884V15.8253C17 18.1308 15.0886 20 12.7322 20H4.2688C1.91136 20 0 18.1308 0 15.8253V10.8884C0 9.02614 1.25595 7.46696 2.97729 6.92935V5.39601C2.98745 2.41479 5.45667 0 8.48476 0C11.5535 0 14.0227 2.41479 14.0227 5.39601ZM8.50508 1.73895C10.5678 1.73895 12.2445 3.37862 12.2445 5.39591V6.71361H4.75552V5.37604C4.76569 3.36869 6.44231 1.73895 8.50508 1.73895ZM9.38911 14.4549C9.38911 14.9418 8.99282 15.3294 8.49491 15.3294C8.00716 15.3294 7.61087 14.9418 7.61087 14.4549V12.2488C7.61087 11.7718 8.00716 11.3842 8.49491 11.3842C8.99282 11.3842 9.38911 11.7718 9.38911 12.2488V14.4549Z" fill="#33CBD5"/>
</svg>
