<svg width="21" height="21" viewBox="0 0 21 21" fill="none" xmlns="http://www.w3.org/2000/svg">
<path fill-rule="evenodd" clip-rule="evenodd" d="M10.2808 0.000244141C12.8947 0.000244141 15.054 1.9919 15.3202 4.53917L15.3945 4.54004C16.8445 4.54004 18.6075 5.50304 19.2025 8.20404L19.9915 14.311C20.2745 16.282 19.9205 17.863 18.9375 18.997C17.9595 20.125 16.4115 20.722 14.4605 20.722H6.11249C3.96949 20.722 2.47649 20.197 1.54749 19.118C0.614485 18.036 0.302485 16.413 0.620485 14.295L1.39649 8.26904C1.90649 5.50604 3.77149 4.54004 5.21549 4.54004C5.34015 3.39052 5.85848 2.29695 6.68079 1.47724C7.62579 0.538244 8.92879 0.000244141 10.2598 0.000244141H10.2808ZM15.3945 6.04005H5.21549C4.77449 6.04005 3.30049 6.21804 2.87749 8.50204L2.10549 14.502C1.85449 16.185 2.04849 17.403 2.68349 18.14C3.31049 18.868 4.43249 19.222 6.11249 19.222H14.4605C15.5085 19.222 16.9395 19.013 17.8035 18.015C18.4895 17.224 18.7255 16.046 18.5055 14.513L17.7265 8.46104C17.3945 6.97004 16.5185 6.04005 15.3945 6.04005ZM13.1973 8.82414C13.6113 8.82414 13.9703 9.16014 13.9703 9.57414C13.9703 9.98814 13.6573 10.3241 13.2433 10.3241H13.1973C12.7833 10.3241 12.4473 9.98814 12.4473 9.57414C12.4473 9.16014 12.7833 8.82414 13.1973 8.82414ZM7.36719 8.82414C7.78119 8.82414 8.14019 9.16014 8.14019 9.57414C8.14019 9.98814 7.82619 10.3241 7.41219 10.3241H7.36719C6.95319 10.3241 6.61719 9.98814 6.61719 9.57414C6.61719 9.16014 6.95319 8.82414 7.36719 8.82414ZM10.2778 1.50024H10.2628C9.32179 1.50024 8.40479 1.87924 7.73979 2.54024C7.19809 3.07951 6.8438 3.78844 6.7292 4.53958L13.8085 4.53986C13.5515 2.82162 12.0657 1.50024 10.2778 1.50024Z" fill="#BEBEBE"/>
</svg>
