<svg width="17" height="20" viewBox="0 0 17 20" fill="none" xmlns="http://www.w3.org/2000/svg">
<path fill-rule="evenodd" clip-rule="evenodd" d="M15.2071 6.79632C15.2071 8.05225 15.539 8.79252 16.2695 9.64558C16.8231 10.274 17 11.0808 17 11.956C17 12.8302 16.7128 13.6601 16.1373 14.3339C15.384 15.1417 14.3215 15.6573 13.2372 15.747C11.6659 15.8809 10.0936 15.9937 8.50049 15.9937C6.90634 15.9937 5.33504 15.9262 3.76375 15.747C2.67845 15.6573 1.61602 15.1417 0.863665 14.3339C0.28822 13.6601 0 12.8302 0 11.956C0 11.0808 0.177901 10.274 0.730487 9.64558C1.48383 8.79252 1.79392 8.05225 1.79392 6.79632V6.37029C1.79392 4.68833 2.21333 3.58851 3.07699 2.51186C4.36106 0.941696 6.41934 0 8.45576 0H8.54521C10.6254 0 12.7502 0.987018 14.0124 2.62466C14.8314 3.67916 15.2071 4.73265 15.2071 6.37029V6.79632ZM5.57363 18.0608C5.57363 17.5572 6.03578 17.3266 6.46314 17.2279C6.96305 17.1221 10.0092 17.1221 10.5091 17.2279C10.9365 17.3266 11.3986 17.5572 11.3986 18.0608C11.3738 18.5402 11.0925 18.9652 10.7039 19.2351C10.2001 19.6279 9.60871 19.8767 8.99052 19.9663C8.64864 20.0106 8.31271 20.0116 7.98275 19.9663C7.36357 19.8767 6.77223 19.6279 6.26933 19.2341C5.87974 18.9652 5.59848 18.5402 5.57363 18.0608Z" fill="#EFBE24"/>
</svg>
