<svg width="20" height="18" viewBox="0 0 20 18" fill="none" xmlns="http://www.w3.org/2000/svg">
<path fill-rule="evenodd" clip-rule="evenodd" d="M15.7689 5.3818H20C20 1.98459 17.9644 0 14.5156 0H5.48444C2.03556 0 0 1.98459 0 5.33847V12.6615C0 16.0154 2.03556 18 5.48444 18H14.5156C17.9644 18 20 16.0154 20 12.6615V12.3495H15.7689C13.8052 12.3495 12.2133 10.7975 12.2133 8.883C12.2133 6.96849 13.8052 5.41647 15.7689 5.41647V5.3818ZM15.7689 6.87231H19.2534C19.6657 6.87231 20 7.19824 20 7.60029V10.1309C19.9952 10.531 19.6637 10.8542 19.2534 10.8588H15.8489C14.8548 10.8719 13.9855 10.2083 13.76 9.26423C13.6471 8.67819 13.8056 8.07347 14.1931 7.61212C14.5806 7.15077 15.1574 6.87998 15.7689 6.87231ZM15.92 9.53284H16.2489C16.6711 9.53284 17.0134 9.19915 17.0134 8.78753C17.0134 8.37591 16.6711 8.04222 16.2489 8.04222H15.92C15.7181 8.03991 15.5236 8.1165 15.38 8.25489C15.2364 8.39329 15.1556 8.58199 15.1556 8.77886C15.1555 9.19191 15.4964 9.52809 15.92 9.53284ZM4.73774 5.38179H10.3822C10.8044 5.38179 11.1466 5.0481 11.1466 4.63648C11.1466 4.22486 10.8044 3.89117 10.3822 3.89117H4.73774C4.319 3.89115 3.97817 4.21958 3.9733 4.62781C3.97327 5.04086 4.31412 5.37704 4.73774 5.38179Z" fill="#BD66F2"/>
</svg>
